<?xml version="1.0" encoding="utf-8"?>
<!-- Svg Vector Icons : http://www.onlinewebfonts.com/icon -->
<!DOCTYPE svg PUBLIC "-//W3C//DTD SVG 1.1//EN" "http://www.w3.org/Graphics/SVG/1.1/DTD/svg11.dtd">
<svg version="1.1" xmlns="http://www.w3.org/2000/svg" xmlns:xlink="http://www.w3.org/1999/xlink" x="0px" y="0px" viewBox="0 0 1000 1000" enable-background="new 0 0 1000 1000" xml:space="preserve">
<metadata> Svg Vector Icons : http://www.onlinewebfonts.com/icon </metadata>
<g><g transform="matrix(1 0 0 -1 0 1920)"><path d="M499.8,1150.9c-27.6,0-55.7,2.8-84.4,8.4c-28.7,5.6-55.7,13.2-81.1,22.7c-25.4,9.6-50.6,20.5-75.6,32.8c-25,12.3-48.1,25.3-69,38.9c-21,13.6-41,27.2-60,40.7c-19,13.5-35.7,26.4-50.1,38.7c-14.4,12.3-26.9,23.2-37.4,32.8c-10.5,9.6-18.6,17.1-24.1,22.6L10,1397c1.3,2.4,3.4,5.8,6.1,10.2c2.7,4.4,8.9,13.3,18.5,26.7c9.6,13.4,19.7,26.6,30.5,39.5c10.8,13,24.9,28.2,42.5,45.8c17.6,17.6,35.8,33.9,54.5,49.1s41,30.4,66.6,45.8c25.6,15.4,51.8,28.5,78.6,39.4c26.8,10.9,57,19.8,90.5,26.7c33.5,6.9,67.6,10.4,102.3,10.4c34.7,0,68.7-3.4,102-10c33.3-6.7,63.5-15.7,90.6-27s53.3-24.3,78.4-39c25.2-14.7,47.5-30.2,66.9-46.5s37.6-32.5,54.4-48.6c16.8-16.1,31.1-31.6,42.8-46.3c11.8-14.7,21.8-27.7,30.2-39c8.3-11.3,14.5-20.4,18.5-27.2l6.3-9.9l-8.7-8.7c0,0-7.9-7.4-23.6-22.2s-28.3-25.9-37.7-33.1c-9.4-7.3-26-20-49.8-38.4c-23.7-18.3-43.8-32.1-60.3-41.2c-16.5-9.1-39.3-22-68.5-38.6s-54.5-27.6-76-33.1c-21.4-5.5-48.4-12.9-80.9-22.2C552,1150.1,523.8,1147.3,499.8,1150.9z M500,1247.4c21.3,0,42,3.3,62.1,9.9s38.2,16,54.4,28.2s30.3,26.4,42.3,42.5s21.5,34.2,28.2,54.2c6.7,20,10.1,40.8,10.1,62.3c0,28.8-6.2,56.5-18.5,83c-35.2,11.9-69.9,20.4-104.1,25.7c17.6-12.1,31.5-27.7,41.8-46.8c10.3-19.1,15.5-39.8,15.5-62c0-23.9-5.9-46.1-17.6-66.4c-11.8-20.3-27.7-36.4-47.9-48.1c-20.2-11.8-42.3-17.6-66.2-17.6c-18,0-35.1,3.5-51.4,10.4c-16.3,6.9-30.3,16.3-42.2,28.2c-11.9,11.9-21.3,25.9-28.2,42.2c-6.9,16.3-10.4,33.4-10.4,51.4c0,22.2,5.2,42.8,15.5,61.8c10.3,19,24.3,34.7,41.8,47c-33.8-5.5-68.8-14.7-104.8-27.7c-11.9-25.9-17.8-52.9-17.8-81.1c0-26.8,5.2-52.3,15.7-76.6s24.4-45.3,42-62.9c17.6-17.7,38.6-31.7,62.9-42S473.2,1247.4,500,1247.4z M686.2,1256.3c24.6,9.9,49,21.4,73.3,34.4c24.3,13.1,46,26.1,65.2,39.2c19.2,13.1,35.9,25.1,50.1,36.1c14.2,11,26.5,21.3,37.1,31c-9.9,9-21.9,18.7-36.1,29s-31.6,21.6-52.2,33.9c-20.7,12.3-42,23.7-63.9,34.3c3.3-17.1,4.9-33.7,4.9-49.8c0-36.2-6.9-70.6-20.8-103C730,1309.1,710.8,1280.7,686.2,1256.3z M310.5,1260c-23.7,24.2-42.2,52.1-55.4,83.9c-13.2,31.7-19.8,65.3-19.8,100.7c0,14.5,1.3,29.8,4,45.8c-28.6-14.7-54.7-30.4-78.4-47s-43.3-32-58.7-46.3c8.3-7.7,17.1-15.4,26.4-23.1c9.2-7.7,20.8-16.8,34.8-27.4s28.1-20.5,42.5-30c14.4-9.4,30.8-19.3,49.3-29.5C273.6,1276.9,292.1,1267.9,310.5,1260z M446.9,1360.8l24.4,24.1c-6.6,3.3-12.4,7.5-17.5,12.5c-5.1,5.1-9.2,10.9-12.5,17.5c-3.3,6.6-5.4,13.5-6.3,20.8l-26.7-26.7C416.5,1388,429.4,1372,446.9,1360.8z"/></g></g>
</svg>